<svg xmlns="http://www.w3.org/2000/svg" xmlns:xlink="http://www.w3.org/1999/xlink" width="500" zoomAndPan="magnify" viewBox="0 0 375 374.999991" height="500" preserveAspectRatio="xMidYMid meet" version="1.0"><path fill="#f24848" d="M 125.046875 238 C 109.449219 238 105.175781 243.53125 105.175781 263.800781 L 105.175781 295.941406 C 105.175781 316.191406 109.449219 321.738281 125.046875 321.738281 C 132.570312 321.738281 133.941406 317.363281 133.941406 312.890625 L 133.941406 247.621094 C 133.941406 241.542969 131.882812 238 125.046875 238 Z M 125.046875 238 " fill-opacity="1" fill-rule="nonzero"/><path fill="#f24848" d="M 185 170.59375 C 180.027344 189.660156 166.703125 206.9375 156.128906 217.140625 C 151.195312 221.871094 146.679688 226.1875 144.246094 230.128906 C 142.097656 233.582031 142.257812 236.371094 142.257812 240.285156 L 142.257812 317.984375 C 142.257812 319.355469 142.898438 321.789062 146.679688 322.519531 C 153.007812 323.714844 157.039062 327.015625 160.945312 330.0625 C 167.097656 334.882812 173.441406 335.242188 181.988281 335.242188 C 181.988281 335.242188 251.941406 335.0625 252.050781 335.082031 C 253.667969 335.0625 256.386719 333.164062 257.914062 330.109375 C 259.597656 326.746094 259.574219 322.546875 257.914062 319.175781 C 257.078125 317.476562 255.683594 316.300781 254.355469 315.175781 C 252.03125 313.203125 252.578125 309.933594 256.015625 309.398438 C 259.644531 308.875 263.136719 307.125 265.015625 303.433594 C 267.007812 299.5625 267.007812 294.730469 265.015625 290.890625 C 263.117188 287.175781 259.683594 284.867188 256.015625 284.867188 C 254.292969 284.867188 252.871094 283.472656 252.871094 281.769531 C 252.871094 280.050781 254.292969 278.65625 256.015625 278.65625 C 259.683594 278.65625 263.117188 276.375 265.015625 272.660156 C 267.007812 268.785156 267.007812 263.964844 265.015625 260.09375 C 263.117188 256.398438 259.664062 254.101562 255.992188 254.101562 C 254.265625 254.101562 252.894531 252.707031 252.894531 251.003906 C 252.894531 249.273438 254.261719 247.882812 255.992188 247.882812 C 259.664062 247.882812 263.117188 245.582031 265.015625 241.882812 C 267.007812 237.992188 267.007812 233.191406 265.015625 229.324219 C 263.117188 225.621094 259.664062 223.324219 255.992188 223.324219 L 211.460938 223.324219 C 203.253906 223.324219 203.074219 215.980469 202.765625 210.453125 C 202.496094 205.695312 202.660156 197.222656 204.9375 190.898438 C 208.9375 179.832031 206.992188 171.714844 204.292969 167.046875 C 198.386719 156.761719 188.230469 158.15625 185 170.59375 Z M 185 170.59375 " fill-opacity="1" fill-rule="nonzero"/><path fill="#f24848" d="M 190.066406 42.449219 L 200.042969 62.976562 L 222.785156 66.339844 C 229.050781 67.242188 229.425781 69.992188 224.960938 74.390625 L 208.832031 88.929688 L 212.523438 112.15625 C 213.714844 119.277344 211.527344 120.988281 206.484375 118.304688 L 185.84375 107.3125 L 165.199219 118.308594 C 160.15625 120.992188 157.96875 119.28125 159.183594 112.160156 L 162.878906 88.933594 L 146.726562 74.394531 C 142.257812 69.996094 142.632812 67.246094 148.898438 66.34375 L 171.660156 62.980469 L 181.636719 42.453125 C 182.789062 40.042969 184.316406 38.847656 185.839844 38.847656 C 187.367188 38.84375 188.890625 40.039062 190.066406 42.449219 Z M 190.066406 42.449219 " fill-opacity="1" fill-rule="nonzero"/><path fill="#f24848" d="M 60.953125 174.773438 L 69.714844 192.773438 L 89.667969 195.71875 C 95.15625 196.515625 95.488281 198.925781 91.570312 202.800781 L 77.40625 215.542969 L 80.644531 235.925781 C 81.707031 242.160156 79.777344 243.664062 75.355469 241.296875 L 57.257812 231.675781 L 39.140625 241.296875 C 34.707031 243.667969 32.789062 242.160156 33.851562 235.925781 L 37.078125 215.542969 L 22.917969 202.800781 C 19.003906 198.925781 19.339844 196.515625 24.824219 195.71875 L 44.800781 192.773438 L 53.542969 174.773438 C 54.582031 172.667969 55.914062 171.601562 57.257812 171.601562 C 58.582031 171.609375 59.933594 172.667969 60.953125 174.773438 Z M 60.953125 174.773438 " fill-opacity="1" fill-rule="nonzero"/><path fill="#f24848" d="M 100.527344 92.246094 L 109.3125 110.304688 L 129.308594 113.246094 C 134.800781 114.042969 135.132812 116.449219 131.210938 120.328125 L 117.035156 133.089844 L 120.265625 153.511719 C 121.320312 159.746094 119.398438 161.253906 114.976562 158.890625 L 96.832031 149.242188 L 78.691406 158.890625 C 74.269531 161.253906 72.34375 159.746094 73.402344 153.511719 L 76.640625 133.089844 L 62.457031 120.328125 C 58.535156 116.453125 58.871094 114.042969 64.359375 113.246094 L 84.359375 110.304688 L 93.121094 92.246094 C 94.15625 90.144531 95.488281 89.085938 96.835938 89.085938 C 98.183594 89.082031 99.515625 90.144531 100.527344 92.246094 Z M 100.527344 92.246094 " fill-opacity="1" fill-rule="nonzero"/><path fill="#f24848" d="M 271.152344 92.246094 L 262.386719 110.304688 L 242.386719 113.246094 C 236.875 114.042969 236.542969 116.449219 240.484375 120.328125 L 254.664062 133.089844 L 251.410156 153.511719 C 250.351562 159.746094 252.273438 161.253906 256.722656 158.890625 L 274.84375 149.242188 L 292.984375 158.890625 C 297.40625 161.253906 299.355469 159.746094 298.296875 153.511719 L 295.042969 133.089844 L 309.21875 120.328125 C 313.136719 116.453125 312.832031 114.042969 307.320312 113.246094 L 287.324219 110.304688 L 278.558594 92.246094 C 277.523438 90.144531 276.195312 89.085938 274.84375 89.085938 C 273.515625 89.082031 272.167969 90.144531 271.152344 92.246094 Z M 271.152344 92.246094 " fill-opacity="1" fill-rule="nonzero"/><path fill="#f24848" d="M 321.546875 174.773438 L 330.3125 192.773438 L 350.269531 195.71875 C 355.753906 196.515625 356.085938 198.925781 352.171875 202.800781 L 338.007812 215.542969 L 341.261719 235.925781 C 342.324219 242.160156 340.382812 243.664062 335.953125 241.296875 L 317.855469 231.675781 L 299.734375 241.296875 C 295.3125 243.667969 293.390625 242.160156 294.449219 235.925781 L 297.679688 215.542969 L 283.515625 202.800781 C 279.601562 198.925781 279.929688 196.515625 285.425781 195.71875 L 305.402344 192.773438 L 314.164062 174.773438 C 315.175781 172.667969 316.503906 171.601562 317.855469 171.601562 C 319.179688 171.609375 320.53125 172.667969 321.546875 174.773438 Z M 321.546875 174.773438 " fill-opacity="1" fill-rule="nonzero"/></svg>